<svg id="Layer_1" data-name="Layer 1" xmlns="http://www.w3.org/2000/svg" viewBox="0 0 201 119"><defs><style>.cls-1{fill:#fff;}</style></defs><title>logo</title><rect width="201" height="119"/><path class="cls-1" d="M250.05,260.43a32.53,32.53,0,0,1-32.71,33,29.93,29.93,0,0,1-27.15-16V292h-6.31V203.6h6.31v39.91a29.93,29.93,0,0,1,27.15-16A32.53,32.53,0,0,1,250.05,260.43Zm-6.31,0A26.78,26.78,0,1,0,217,287.33,26.59,26.59,0,0,0,243.74,260.43Z" transform="translate(-150 -190)"/><path class="cls-1" d="M253,260.43c0-18.69,14.15-33,33.22-33,12.37,0,23,6.32,27.53,16.17l-5.18,3c-3.66-8-12.25-13.14-22.35-13.14-15.29,0-26.78,11.88-26.78,26.9s11.49,26.9,26.78,26.9c10.23,0,18.56-5.3,22.73-13.13l5.3,3.16c-5.05,9.72-15.66,16-28,16C267.19,293.4,253,279.13,253,260.43Z" transform="translate(-150 -190)"/><path class="cls-1" d="M201.91,246.18a20.7,20.7,0,0,0,29.27,29.27Z" transform="translate(-150 -190)"/><path class="cls-1" d="M319.28,287.12a5.82,5.82,0,0,1,5.92-5.93,5.93,5.93,0,0,1,0,11.85A5.81,5.81,0,0,1,319.28,287.12Z" transform="translate(-150 -190)"/></svg>