<svg id="Layer_1" data-name="Layer 1" xmlns="http://www.w3.org/2000/svg" viewBox="0 0 201 119"><defs><style>.cls-1{fill:#181818;}.cls-2{fill:#fdfdfd;}</style></defs><title>logo</title><rect class="cls-1" width="201" height="119"/><path class="cls-2" d="M310.05,165.43a32.53,32.53,0,0,1-32.71,33,29.93,29.93,0,0,1-27.15-16V197h-6.31V108.6h6.31v39.91a29.93,29.93,0,0,1,27.15-16A32.53,32.53,0,0,1,310.05,165.43Zm-6.31,0A26.78,26.78,0,1,0,277,192.33,26.59,26.59,0,0,0,303.74,165.43Z" transform="translate(-210 -95)"/><path class="cls-2" d="M313,165.43c0-18.69,14.15-33,33.22-33,12.37,0,23,6.32,27.53,16.17l-5.18,3c-3.66-8-12.25-13.14-22.35-13.14-15.29,0-26.78,11.88-26.78,26.9s11.49,26.9,26.78,26.9c10.23,0,18.56-5.3,22.73-13.13l5.3,3.16c-5.05,9.72-15.66,16-28,16C327.19,198.4,313,184.13,313,165.43Z" transform="translate(-210 -95)"/><path class="cls-2" d="M261.91,151.18a20.7,20.7,0,0,0,29.27,29.27Z" transform="translate(-210 -95)"/><path class="cls-2" d="M331.91,151.18a20.7,20.7,0,0,0,29.27,29.27Z" transform="translate(-210 -95)"/><path class="cls-2" d="M379.28,192.12a5.82,5.82,0,0,1,5.92-5.93,5.93,5.93,0,0,1,0,11.85A5.81,5.81,0,0,1,379.28,192.12Z" transform="translate(-210 -95)"/></svg>